<svg width="1647" height="797" xmlns="http://www.w3.org/2000/svg" fill="none">

 <g>
  <title>Layer 1</title>
  <path id="svg_1" fill="#444444" d="m104.901,375.35l-48.0794,-92.608l0,-189.3142l-56.8216,-93.4278l228.652,0c136.044,0 215.54,68.8415 215.54,186.856c0,80.315 -37.699,137.683 -108.18,166.367l113.917,245.862l-114.736,0l-101.623,-223.735l-128.669,0zm-48.0794,-281.9222l0,189.3142l171.8304,0c66.383,0 105.721,-35.24 105.721,-95.886c0,-59.827 -39.338,-93.4282 -105.721,-93.4282l-114.326,0c-44.647,0 -12.857,0 -57.5044,0z"/>
  <path id="svg_2" fill="#444444" d="m1416.26,610.85c-86.05,0 -138.5,-49.992 -138.5,-126.21c0,-74.578 54.09,-121.292 149.97,-128.668l121.29,-9.015l0,-9.015c0,-54.909 -32.78,-77.037 -83.59,-77.037c-59.01,0 -91.79,24.587 -91.79,67.203l-85.23,0c0,-87.691 72.12,-145.059 181.94,-145.059c109,0 176.2,59.007 176.2,171.284l0,245.863l-87.69,0l-7.38,-59.827c-17.21,41.797 -72.12,70.481 -135.22,70.481zm32.78,-75.398c61.47,0 100.8,-36.879 100.8,-99.165l0,-21.308l-84.41,6.557c-62.28,5.736 -86.05,26.225 -86.05,59.007c0,36.879 24.59,54.909 69.66,54.909z"/>
  <path id="svg_3" fill="#444444" d="m866.773,787.871l0,-83.594l59.827,0c39.338,0 63.924,-9.014 81.13,-56.548l11.48,-30.323l-163.091,-422.064l105.721,0l104.08,295.035l109.82,-295.035l103.26,0l-198.33,495.003c-30.32,75.398 -72.94,106.541 -139.318,106.541c-27.865,0 -52.451,-3.278 -74.579,-9.015z"/>
  <path id="svg_4" fill="#444444" d="m660.548,610.85c-120.473,0 -204.886,-87.691 -204.886,-213.081c0,-127.029 82.774,-214.72 201.607,-214.72c121.293,0 198.33,81.134 198.33,207.344l0,30.323l-304.87,0.82c7.376,71.3 45.075,107.36 111.458,107.36c54.909,0 90.969,-21.309 102.442,-59.827l92.609,0c-17.211,88.511 -90.969,141.781 -196.69,141.781zm-2.459,-345.847c-59.007,0 -95.067,31.962 -104.901,92.608l203.246,0c0,-55.729 -38.518,-92.608 -98.345,-92.608z"/>
 </g>
</svg>